/* XPM */
static char *_641603cb3ed4b81b706f96db232773cHtddz5rAweENGOmE[] = {
/* columns rows colors chars-per-pixel */
"50 50 196 2 ",
"   c #010101",
".  c #0B0202",
"X  c #010902",
"o  c #0C0905",
"O  c #02020B",
"+  c #0A010A",
"@  c #07080A",
"#  c #0B0B0B",
"$  c #130201",
"%  c #1B0101",
"&  c #130008",
"*  c #120D09",
"=  c #190A0A",
"-  c #0C120D",
";  c #13120E",
":  c #181202",
">  c #000111",
",  c #0B0010",
"<  c #0E0F13",
"1  c #110F11",
"2  c #131313",
"3  c #151519",
"4  c #191719",
"5  c #151B1A",
"6  c #1B1A1B",
"7  c #1E1B12",
"8  c #230201",
"9  c #2A0201",
"0  c #21000D",
"q  c #310301",
"w  c #3A0000",
"e  c #300009",
"r  c #3C000B",
"t  c #241D1B",
"y  c #281F18",
"u  c #241615",
"i  c #1B2115",
"p  c #25211D",
"a  c #2F261F",
"s  c #171D21",
"d  c #281F22",
"f  c #1C2021",
"g  c #242325",
"h  c #26252A",
"j  c #2A272C",
"k  c #2C2A2C",
"l  c #292623",
"z  c #352C2D",
"x  c #29332E",
"c  c #2D2C32",
"v  c #302E32",
"b  c #3E2E31",
"n  c #363634",
"m  c #383735",
"M  c #3A3936",
"N  c #303538",
"B  c #343C38",
"V  c #3B3B3B",
"C  c #343839",
"Z  c #430202",
"A  c #4A030A",
"S  c #590007",
"D  c #4F1009",
"F  c #640001",
"G  c #640E01",
"H  c #650D0C",
"J  c #740202",
"K  c #7C0003",
"L  c #71060B",
"P  c #78130A",
"I  c #680E10",
"U  c #6B0210",
"Y  c #740C14",
"T  c #7C0B13",
"R  c #7B0012",
"E  c #6C1011",
"W  c #791017",
"Q  c #731015",
"!  c #5A230E",
"~  c #3F443D",
"^  c #3E3A42",
"/  c #433C43",
"(  c #3C4942",
")  c #424341",
"_  c #46444B",
"`  c #48464C",
"'  c #4C4B4D",
"]  c #4B4747",
"[  c #495246",
"{  c #514A51",
"}  c #475254",
"|  c #565454",
" . c #5C555B",
".. c #5C5C5B",
"X. c #595856",
"o. c #4A4A54",
"O. c #64555A",
"+. c #586659",
"@. c #565B62",
"#. c #5A5D64",
"$. c #625662",
"%. c #526060",
"&. c #5E6369",
"*. c #5E6869",
"=. c #65686F",
"-. c #65646C",
";. c #696870",
":. c #766D77",
">. c #6B7776",
",. c #850101",
"<. c #8C0202",
"1. c #89000A",
"2. c #940201",
"3. c #9C0102",
"4. c #94000A",
"5. c #99020A",
"6. c #8E110B",
"7. c #830F12",
"8. c #960314",
"9. c #9C0A14",
"0. c #8A1118",
"q. c #A40202",
"w. c #AC0101",
"e. c #A4010B",
"r. c #AE0009",
"t. c #A90B07",
"y. c #B30102",
"u. c #BB0202",
"i. c #BA080B",
"p. c #AA1008",
"a. c #BE0315",
"s. c #B80815",
"d. c #BD1316",
"f. c #C70100",
"g. c #C30203",
"h. c #CA0401",
"j. c #C90900",
"k. c #C90809",
"l. c #CA040B",
"z. c #D40103",
"x. c #DC0302",
"c. c #DC030A",
"v. c #D30409",
"b. c #CC0313",
"n. c #D90412",
"m. c #D50616",
"M. c #E20000",
"N. c #E60100",
"B. c #E40001",
"V. c #EC0F00",
"C. c #F2020C",
"Z. c #FD040A",
"A. c #EB001A",
"S. c #EB0313",
"D. c #F90018",
"F. c #F90818",
"G. c #F80A13",
"H. c #FF3319",
"J. c #FB5A24",
"K. c #836974",
"L. c #DC7E5C",
"P. c #F66149",
"I. c #E77141",
"U. c #FF8B5C",
"Y. c #FF9267",
"T. c #FF9268",
"R. c #727B82",
"E. c #8A7884",
"W. c #7E828A",
"Q. c #86868B",
"!. c #8D8E93",
"~. c #938B94",
"^. c #869393",
"/. c #929296",
"(. c #95969A",
"). c #9B9B9D",
"_. c #9DA8A4",
"`. c #ADA8AE",
"'. c #B8B7BD",
"]. c #AAB3B8",
"[. c #BBBAC0",
"{. c #C0BFC5",
"}. c #CBCACE",
"|. c #C5C4CA",
" X c #CECDD3",
".X c #DBDADD",
"XX c #D4D4D8",
"oX c #DFDEE2",
"OX c #E8DBE4",
"+X c #E2E2E4",
"@X c #E5E3E9",
"#X c #EBEBEE",
"$X c #F0EFF4",
"%X c #F1F1F3",
"&X c #F5F5F8",
"*X c #FBFBFD",
/* pixels */
"                                                                                + + + O O O O       ",
"                                                                                + + O O O + O O     ",
"                                                                                    O O + + + +     ",
"                                                                                                    ",
"                                                                                                    ",
"                                                                                                    ",
"                                                                                                    ",
"                                                                                                    ",
"                                                O O       X O O +                 +   + +           ",
"                                                                  +   + @ O + + O O                 ",
"                                                      + O O X     O                                 ",
"                                . . . . . . . . % $ . . . . . $ % . @ O O +                         ",
"                                . . . . . . . $ . $ $ $ $ $ . $ . . . .   O O O                     ",
"                                                O         + O O   @     O   O                       ",
"                                                    O @ O   $ . % . o o         .                   ",
"                                          . . . . X     $ ! L.T.U.I.Y.P.i.5.S 8 . .                 ",
"                  +     .     O .   O     $   +       X   n.x.M.x.x.g.f.y.3.L F A Z q 8 $ .         ",
"    . & 8 e r A S X   +   . O O   X O .     O + O o   . + $   . O   X X +   @ . % $ . .             ",
"                              . O .     O     o O O O X O   + +   . > O O   O .             O O     ",
"                +   .   + O   S.N.S.M.Z.+ 5.y.  s.f.% D F.d.8 N.S.C.G.Z.  O   +                     ",
"                O       O O   x.h.x.c.k.  W <.Q g.u.. A f.t.8 k.z.x.z.N.  O                         ",
"                    X O   X . w.m.  . . O   J 2.w.8.O Z a.9.+   u.w.O     .   X                     ",
"                      O   . O u.z.  + O   O J t.3.4.O 9 u.2.O   w.y.O + + O O O                     ",
"                O .   .       g.h.    O     u.y.3.G   w q.6.O + w.f.  .       O .                   ",
"                  O   .       f.f.    + O   g.w.J 8 + q e.T     y.w.    O   O                       ",
"                  O X 0 b.  + l.y.    +     D F Z X O 8 2.T     e.q.O   N.+ +                       ",
".               O O % j.O X   u.u.,.G 3.+ O O Z F   + 8 ,.L     q.2.    O x..                       ",
"* * o o o o . o o O $ u.%   O u.q.1.J y.  . o z.8.  + 9 <.H     2.5.+   $ y..                       ",
"; * * * * * o * :   O 0 2.  O g.y.@   . X . P C.K   O 9 <.I     5.<.+   3.+   +                     ",
"p p p p p p p p y X       +   y.j.    O X O D.c.J 8 O % K Y +   q.K   X O +                         ",
"m n n M V M M V /       O .   q.y.    .     H.V.<.U   % J Y + + <.K     O O     X X X X             ",
"X.X.X...........@.      >     q.u.  . O   + J.z.,.R   8 <.T     ,.F   . >   .   # # # X X           ",
").).).).).).(./.^.$ O O   O   w.u.  . @   $ x.h.q.2.  = 3.P     J e.O O . O X   # # # o # X         ",
"+X+X+XoX.X.XXX}.}.  O O . +   q.w.v.M.v.  7.c.p.y.r.8 9 5.E O O J 3.    . O . . 2 # # # #           ",
"*X*X*X*X*X&X%X#XOX  + +   O $ m.x.M.A.S.$ x.A.. m.n.q 9 a.0.    n.i.o     O   O 3 2 2 # X           ",
"*X*X*X*X*X&X%X#X@X  O     + O           O O   O . . O + .   O O     O .   +   + 6 3 2 #             ",
"&X&X&X$X#X@XoX.XXX      o O + X   O   O   @   . O   O +         O O O +         6 6 2 X             ",
"}. X X}.|.{.[.'.].`.K._.(.~.Q.k W.R.:.:.&.$. .$.| ] ' ] B N m x z j l l f s u 3 3 3 #               ",
"!./.(.(.(.(.(./.~.^.Q.W.E.>.>.+ -.+. .{ } [ [ _ ~ ( V n B n z c a d i 7 6 5 = 1 2 # X               ",
"@.#.&.-.=.=.=.-.;.&.*.@.$.%.O.N o.) ) / ^ b x z z c j k 6 t t 5 5 s 2 ; 3 < - - # X                 ",
"V ^ V _ _ ` _ ' ` _ _ _ ` _ ) / ) V n k k g g g 6 6 4 2 2 2 ; ; 2 # # o o o o #                     ",
"g h h h g j j k c c v v v v k k g g 6 6 6 3 3 2 2 1 # o # # # o o o o o . o .                       ",
"3 # 6 6 3 6 6 3 4 4 4 6 6 6 4 3 2 2 2 2 # # # # o X       +             . o X                       ",
"' #   # 2 # # 2 * # # # # # # # # # # # X X X                       . . . .                         ",
"6   # X   # # X X X X   X X                                           . .                           ",
"2       X                                                           . o .                           ",
"X X                                                             . . . .                             ",
"  X                                                               . o                               ",
"                                X X             + +             . o                                 ",
"            X X X # X X @ # @ @ # X X X X X X X + + X           . o                                 "
};
