/* XPM */
static char *_f51b8f62ecb4e91f8d5df7de2359936mI3XFOfqLxuuwgql[] = {
/* columns rows colors chars-per-pixel */
"50 50 256 2 ",
"   c #191916",
".  c #15110F",
"X  c #261909",
"o  c #271C18",
"O  c #361C16",
"+  c #35180C",
"@  c #2B240C",
"#  c #38270A",
"$  c #2C241B",
"%  c #262415",
"&  c #362617",
"*  c #393617",
"=  c #1B1C23",
"-  c #281A24",
";  c #331E27",
":  c #351E32",
">  c #2A2427",
",  c #392826",
"<  c #3A2F31",
"1  c #442908",
"2  c #48380B",
"3  c #583609",
"4  c #452C18",
"5  c #493617",
"6  c #553917",
"7  c #542E10",
"8  c #653C19",
"9  c #673C10",
"0  c #442C27",
"q  c #532C25",
"w  c #433424",
"e  c #4B3B2B",
"r  c #483726",
"t  c #543925",
"y  c #493B34",
"u  c #543A32",
"i  c #653E25",
"p  c #773632",
"a  c #461A1A",
"s  c #3A4639",
"d  c #5B461A",
"f  c #514411",
"g  c #68420A",
"h  c #684818",
"j  c #734B18",
"k  c #76561B",
"l  c #705011",
"z  c #7B601E",
"x  c #4B4328",
"c  c #554425",
"v  c #594528",
"b  c #534433",
"n  c #594736",
"m  c #514E37",
"M  c #6C4C24",
"N  c #644C2C",
"B  c #664828",
"V  c #754A25",
"C  c #6C532C",
"Z  c #695526",
"A  c #735425",
"S  c #7B5C24",
"D  c #74532B",
"F  c #745B2A",
"G  c #7B5B2C",
"H  c #795726",
"J  c #6C4D32",
"K  c #654937",
"L  c #6C5533",
"P  c #64543C",
"I  c #685838",
"U  c #7C5C33",
"Y  c #765738",
"T  c #724F33",
"R  c #7D662C",
"E  c #6B6337",
"W  c #796436",
"Q  c #6C632D",
"!  c #3D3C41",
"~  c #423E4C",
"^  c #3C4545",
"/  c #484749",
"(  c #574545",
")  c #4E4C4F",
"_  c #685746",
"`  c #725D42",
"'  c #765846",
"]  c #6B5854",
"[  c #786547",
"{  c #676458",
"}  c #766958",
"|  c #796E4F",
" . c #726D65",
".. c #855B1B",
"X. c #8C5019",
"o. c #88641B",
"O. c #96671C",
"+. c #976E16",
"@. c #A5741C",
"#. c #AA6514",
"$. c #835C2C",
"%. c #875926",
"&. c #955D28",
"*. c #855C35",
"=. c #955A35",
"-. c #834928",
";. c #A85B32",
":. c #8B6324",
">. c #876729",
",. c #966928",
"<. c #9B732C",
"1. c #987527",
"2. c #836334",
"3. c #846C33",
"4. c #8B6C35",
"5. c #83633A",
"6. c #8C6C3B",
"7. c #886639",
"8. c #936C33",
"9. c #9A6C35",
"0. c #946838",
"q. c #897439",
"w. c #9B7434",
"e. c #93723C",
"r. c #9D753B",
"t. c #9C7B3B",
"y. c #967634",
"u. c #8A742E",
"i. c #A66B2A",
"p. c #A77628",
"a. c #B57A28",
"s. c #A76A34",
"d. c #A47B34",
"f. c #A77938",
"g. c #B57B36",
"h. c #BE6B3B",
"j. c #CF7131",
"k. c #DA5F34",
"l. c #875D43",
"z. c #876844",
"x. c #877346",
"c. c #987846",
"v. c #846C56",
"b. c #947B58",
"n. c #8F6B4D",
"m. c #A47B49",
"M. c #AD7049",
"N. c #857563",
"B. c #CE7E45",
"V. c #9C823B",
"C. c #B8852B",
"Z. c #A88437",
"A. c #BC8C34",
"S. c #B78638",
"D. c #BE9137",
"F. c #AD8C2E",
"G. c #BA831C",
"H. c #C88A29",
"J. c #D5952A",
"K. c #C78935",
"L. c #D48E39",
"P. c #C89536",
"I. c #D79836",
"U. c #C8932D",
"Y. c #E59D32",
"T. c #E09D28",
"R. c #D9A337",
"E. c #CEA733",
"W. c #E6A237",
"Q. c #EFAC31",
"!. c #CC8E1F",
"~. c #9A8349",
"^. c #998358",
"/. c #8E8245",
"(. c #A78549",
"). c #B68947",
"_. c #B99648",
"`. c #A38552",
"'. c #A68A58",
"]. c #B68757",
"[. c #B89956",
"{. c #AC9455",
"}. c #BBA955",
"|. c #978A68",
" X c #A58A62",
".X c #AB9463",
"XX c #B19871",
"oX c #B7A871",
"OX c #C68D43",
"+X c #C79547",
"@X c #D89847",
"#X c #C79855",
"$X c #CC8A4D",
"%X c #EA9845",
"&X c #D9A549",
"*X c #CAA357",
"=X c #D2A355",
"-X c #D4B04E",
";X c #EBAC47",
":X c #E8B74A",
">X c #E9B557",
",X c #F1AF4F",
"<X c #C7A766",
"1X c #D7A964",
"2X c #D2B46F",
"3X c #F7B96B",
"4X c #F0B16D",
"5X c #F9C857",
"6X c #F7D658",
"7X c #ECCE53",
"8X c #DDCF6D",
"9X c #EAC969",
"0X c #FBDA68",
"qX c #E6C878",
"wX c #F9C977",
"eX c #F5D874",
"rX c #EFD46C",
"tX c #F7E969",
"yX c #FBF36B",
"uX c #F7E577",
"iX c #FCF57A",
"pX c #EBE269",
"aX c #FFFA5D",
"sX c #AB9D87",
"dX c #ACA48B",
"fX c #ABA688",
"gX c #B3A888",
"hX c #ABA694",
"jX c #B6AB95",
"kX c #B5B294",
"lX c #F1BE81",
"zX c #D2AD83",
"xX c #D6CC8B",
"cX c #F9CC88",
"vX c #F8D788",
"bX c #FDD894",
"nX c #E6D288",
"mX c #FAE989",
"MX c #FCF586",
"NX c #FBE696",
"BX c #FEF798",
"VX c #EAEA86",
"CX c #EBDFA3",
"ZX c #FEEDA9",
"AX c #FAF9A6",
"SX c #FAFEB2",
"DX c #DAD8C9",
"FX c #E6DECC",
"GX c #E0DED6",
"HX c #E7E2CD",
"JX c #FFF8C6",
"KX c #EAE5D2",
"LX c #E9E7D8",
"PX c #F4EAD3",
"IX c #F6F8E7",
"UX c #DFE1C9",
/* pixels */
"sXXXsXb.b.b.c.x.P # , e y dXsXdXgX(.bXwXwXcX@Xl ).].S D l.,.,.q < w x b y n b b C ` u [ x.sXhXfXdXdX",
"sX X^. Xn.b.c.n.c n e r , fXfXgXdX~.~.t.j G V L @Xw.3.>.=.4.Z y y b b u P I X > Y 1X>XlXC gXfXfXdXdX",
"gX'.c.'. X5.Z z.4 P b XXjXdXdXfXgXc.~.`.5.L Y N {.Z.<.e.t.u.h r K v [ K 4 5.(.f.).).).].m.XXsXhXdXdX",
"sX.X'.*. X'.2.' K 4 n jXhXdXkXdXgXm.V.m.c.W A Z n.7.7 Y <XA.$._ y 4 {.2X=X#X#X<X[.[.].).F.~.XXgXdXdX",
"hX^.'. X'.`.A B n r e ] jXjXdXhXjX^.c.c.`._ Z L B Z W W d % = > , 0 n c d Z z.i v d B B L c N.gXdXdX",
"hXjX'.'..X`.v K v t c & gXkXkXkXhX^.^.m.~.< L K T c e P F M e w x x K L C C v d K M N N D M P hXdXdX",
"kXgX X'.'.'.v & ; > > )  .~ ) / / [ /.(.V.w C Y m v t e d Z D N * r c N B N B h J c J Y B N L ^.hXhX",
"kXjX.X'.`.'.n u , > < / m / / ) ) ( ~.m.(.r Y A N b y w 4 & & t 4 & r 4 # & o o   = = % 5 v P P jXjX",
"/.c.m.m..X X4 b L , < ( ) ) ) ) ) ) (.`.^.3 L U J n [ t e r 5 K h n d _.c.8.,.$.S ].}.= P _ P I U Y ",
"f.m.e.e.r.$XOX1XS H *.R ) / / / ^ ) `.c.(.M P L Y n _ q n c c.4.*.G n.0.0.j +X2Xh J I X I E E ' ( v.",
"+X#X).).Z.Z.=X$Xf.m.c.2Xx / / / / m ~.'.`.x.b Y Y P P P _ C >.0.f.>.[._..X6 k ` ` Y [ , t ; r v.I _ ",
"9X3Xh.s.(.r.M.$Xg.g.9.s.=.m.c.zX[ hX|.`.V.`.7 O.G L [ N & N A D r.H L L F ] + E [ I I ] z.D }.} ] } ",
"].).f._.3X$X;.9.0.;.;.O.&.&.M.g.B.4XwX(.`.~.J =.8.6 # ` , K M h $.h Y ` W _ o E 5.n , 7.c.b.| {  .{ ",
"[.[.{.[.g.OXp.D.9XB.;.=.,.s.s.mX`.G &.&.9.).n v T t K b w ` D F C B F ` [ [ o - Z E.A.`.Y | } N. ./ ",
"g.S.g.Z.p.OXg.p.g.U.<.F.bX9XA [ 5.M (.JXm ~.b , 0 w ` ] & W `.6 J U Y O B W . > & @XL.B } N.[ x Y b.",
"_.g.<.).d.OX@XK.a.C.C.,X=X5.[ &.>.%.#XZ e (.t $ $ 5 [ , < A l J <.g.<._.1X_.N ; 0 K.C.d [ x.o |.1X*X",
"  X L XX,.g.S.g.A.g.g.K.:X8 >.C L A 5 P V (.f t , w } w , M A M Z 7.).F Y 5.W * e Z.C.j ' w N.$ m.0.",
"o o > - o 1 nXF.).f.f.S.>X0...$.N c.i ' 6  XE 0 G J 4 : , C Z J g ).k [ [ ' z.& : - & ( B =XqX,.F F ",
"9.p.p.@.C.f.V i # 6.#X@XH.&.6.4 & 6 V =.h '.c.v.5 u N.4 M D 2 D T (.g 5 [ Y [ x `.oXxXAX8XmX9XcXcX4X",
"a.a.g.i.i.p.p.p.s.&.M 6 2 o # P %.+Xj.;.m.`.(.W u 5 v.[ N 2.9.%.d <XNXAXAXBXAXAXBXvXvXcX4X4X4X4X4X3X",
"cXbXvXNXnX2X#X).a.@.O.1.+.<.A.+X1XU.>X;X_.(.{.z.6 v ( W d Y c.#X1.NXAXxXSXnXBXNXvXbXlX4X=X_.2XbX_.1.",
"H.I.W.T.Q.Q.Q.T.P.A.d.>.S F F Z L h d h h i V n.W N ( K H G Z.2X*X:.BXBXNXqXrX*Xt.<.d.A.C.,.j i t N ",
"C.C.I.U.I.I.U.H.A.a.p.:.>.S A 4.A S A k k xXx.6 R v.e jXF $.:.1Xf.[.,.(.9.D d v v N Z N J D T A U D ",
"I.H.J.Y.Y.I.I.U.A.C.1.<.,.:.:.,.....$.$.S C L t V J k 2.C [.i C 2.k h M A M D k D A U U G S R W S $.",
"K.J.T.T.W.W.Y.L.A.C.p.).p.,.:.,.:.O.9.o.V.u 0 v K p J [ n.gX} 6 2.,.A $.F U F S W G $.S W R R $.7.7.",
"H.W.W.Q.Q.,X,XR.Q.Y.;XI.I.&X@XOX+XOXg.p.o.4 & # i V JX# Y 6 4 Y g D j &.:.W Y =.>.4.7.6.k j v r X & ",
"O . > % > & # 5 5 b c d v B 5 r o Q > % , + G U D W % > 5 0.t K <Xv d 2 4 5 J t + + 5 ~.{.S V + # 7 ",
"&.8.d - X N Z.I.K.i.#X+X9 U 2 & , M M Y I $ _ .XB $ o   o q K K 6 k V t O 5 Y $.:.,.,.2.4 6 %.L.s.s.",
"U.;XY.K.3 8 J d.(.h $.j J B 6 r % $ < 6 y.l.nXr o w 0 , m r q 8 v &.+Xt > 9 7XtX7XE.a.0.4 w j :Xg.i.",
"Q.Q.J.qXMX2Xd S.:.6.h h M V h v y Z J i 2X<X5 8 q X > $ c '.4.6 U ..aXy $ 9 7XtX5X,XOX,.5 $ t d.B B ",
"ZX}.C.k W 2.X 6 >.4.4.8.e.2.6 6 # 5 d qXM d e   < @ u 0 Z JXm.$.# q 7XL o B 1XV 6 t & % .   & g V M ",
"g R 0.z.u.7.. X 4.8.>.r.l U 5 & U j 9Xi d d 0 q b & . t oX`.=.T 0 o @ . , v %.,.w.0.$.S d + n G 8.%.",
"3.8.9.4.6.z.v @ o.s.=.# @ 2.,.p.h 2X3.k 8 D t 4 X 6 XXX $.-.B R V.NXC.P.@X_.d.,.8.%.X.%.%.H W v ,.:.",
"w.:.8.e.9.,.A o o $ , tX+.,.A.d.h 2.4.l.G W 1 & c k ZXJX. 0.k.9.=.@.mXM.).OXA.L.J.I.@XD.<...i.,.<.<.",
"y.r.r.1.u.j 1 & $ $ $ i.s.C.E.[ S h *.g M x r D ,.P.3Xh...1 %XOX&.f.a.vX4Xt.OX+XS.C.K.I.I.K.S.,.<.w.",
"9.a.j + 5 ` ( & % , & ,.i.s.I.k =.W *.1X. > z.D.=X>XM.;.&.>.1 L.U.,.d.U.0X1XmXmXeXmXZXCX<Xw.S.P.+XOX",
"@ 5 (.+.OX#.[.o o o % H i.<.:XD 6.8 Q @ . o J J.L.j.#.M.h.i.i.H.R.H.K.d.:.A Y F F Z d 9 %.).=X+XP.&X",
"C.H.@.R.:X&Xl f O $ @ w.i.D.6Xd T /.& z.nX. @ g.g.k.j.j.j.j.j.,.I.Y.I.U.l 4.2.S 3.R R R 3.2.5.5.5.5.",
"9XG.K.%.0.<.i.j % * % c.+X&X6X7 z.M W ).&XmX  D &X%X;X3XL.P.h d 1.H.!.7XR *.U z.5.7.6.7.q.5.5.z.7.5.",
"l 8.3.>.1.C.j.g.$ & 6 - @ O # $ h F.@X#XE.:XOX. z >X..6 4 0 4 X CXF.a.+X2.3.2.>.3.4.e.6.c.6.4.e.x.6.",
"d.O.a.a.g.H.O.>.o * 5 p.o o D.p.+Xo.Z.S.a.g.6 o u t.5 5 AXwXwX).K.>XP.O.4.q.q.6.q.q.q.e.7.z.q.R z.z.",
",.g.i.s.:.4.4 ; t t >.Q.6X> z 5Xp.3 t 5 t 4 4 Q BXiXmXMXrX4X%X&XOX:.3.c.6 4 @ X y b { } v.[ x.x.5.5.",
"..=.9.V # n + 5 >Xg.p.+XX.X X :X5 0 4 {.mXBXVXBXwXmXBXuXvX3X;X+Xt.k f.p.>.# w 5 b.x { { { / / ~ ^ ^ ",
">.:.u..   >.*X+.x i 6 5 0 b X 7XiXpXpXMXiXuXmXMXBXVXmX3X4X,X5XS.g.-.H o.).-.7.R z.v./ ^ s ^ s ^ / / ",
"B j 9   . I.6 r * 6 q 8XyXyXiXyX5X0X0XpXpXmXmXeXuXuX>X>X>XvXF.p.].g r.r.e.c.c.<.q.x./ ^ ^ ! m / / / ",
"A.f.7.    a.t 3 wX7X0X5X6XeXtXMX0XeXMXuXMXuXuXeXMXmXS.a.OX3 6.w.1.w.m.u.V.y.8.6.4.| y / / / { LXFXFX",
"S.p.e.$   S.7 h OXrX6X6XtXyXiX6XeXtXtXiXBXNXD.C.K.,.3.<.1.f.c.y.1.d.e.c.6.z.z.q.U [ b |.GXLXUXLXHXHX",
").F.c.' f <.2 6 @.7X5X0X6X6XtX8XBXBX+XU.C.%.c.1.t.8.f.f.m.c.e.,.R c.0.u.y.4.z.| y DXGXLXHXHXHXHXHXFX",
"C.Z.`.3.d | < U ,.S.MX6XMXBX+XD.S.l :.w.w.d.w.w.8.y.t.t.t.r.e.e.2.q.3.x.b { LXHXLXKXKXKXKXKXKXHXHXHX",
"c.[ y GXIXIXIXxXqX4X-XH.A.o.1.1.d.<.f.f.d.Z.Z.8.r.t.t.t.r.r.e.4.' w PXPXPXLXPXPXLXLXKXLXKXKXKXKXKXKX"
};
