/* XPM */
static char *_24a0f19c8a74481cc85436af8b1c810Q3ZOaNobbPNfk2uB[] = {
/* columns rows colors chars-per-pixel */
"50 50 254 2 ",
"   c #002B05",
".  c #023201",
"X  c #033B00",
"o  c #0C3C02",
"O  c #003909",
"+  c #0E3910",
"@  c #032712",
"#  c #044400",
"$  c #0C4A02",
"%  c #0C4607",
"&  c #154302",
"*  c #154A05",
"=  c #0B5501",
"-  c #135303",
";  c #1A5B02",
":  c #175807",
">  c #1B4D19",
",  c #1B5715",
"<  c #0E4B18",
"1  c #225B04",
"2  c #255A09",
"3  c #285B15",
"4  c #2F550C",
"5  c #1D6201",
"6  c #1A6804",
"7  c #1A6A12",
"8  c #236400",
"9  c #2B6402",
"0  c #246B02",
"q  c #2B6C02",
"w  c #28660A",
"e  c #326B01",
"r  c #346906",
"t  c #2C7302",
"y  c #297706",
"u  c #347502",
"i  c #337B02",
"p  c #3A7C01",
"a  c #33740B",
"s  c #337A0A",
"d  c #3A7C0B",
"f  c #3B7207",
"g  c #2B6815",
"h  c #366A17",
"j  c #2D7615",
"k  c #327312",
"l  c #387918",
"z  c #18522B",
"x  c #255B27",
"c  c #225230",
"v  c #336C28",
"b  c #387825",
"n  c #296636",
"m  c #3B7934",
"M  c #2C6D2C",
"N  c #447C02",
"B  c #467B17",
"V  c #416D08",
"C  c #447B25",
"Z  c #457C35",
"A  c #517D30",
"S  c #366B4B",
"D  c #4A7D48",
"F  c #537E63",
"G  c #2C8204",
"H  c #348403",
"J  c #3C8302",
"K  c #3C8B02",
"L  c #3C840A",
"P  c #3C8B0B",
"I  c #35820B",
"U  c #3B8616",
"Y  c #398F10",
"T  c #378526",
"R  c #438402",
"E  c #448B03",
"W  c #4B8D02",
"Q  c #43830B",
"!  c #49880A",
"~  c #548C07",
"^  c #459202",
"/  c #4C9402",
"(  c #4C9B02",
")  c #4D940C",
"_  c #4D9B0B",
"`  c #459708",
"'  c #539402",
"]  c #539B02",
"[  c #5B9C02",
"{  c #54940C",
"}  c #539C0B",
"|  c #5C9C0C",
" . c #599507",
".. c #448413",
"X. c #438B14",
"o. c #4B8D13",
"O. c #43841C",
"+. c #49841B",
"@. c #4B8D1B",
"#. c #4A8615",
"$. c #548D17",
"%. c #4B9413",
"&. c #499718",
"*. c #539414",
"=. c #549C13",
"-. c #599C13",
";. c #549B1C",
":. c #5B9C1A",
">. c #579418",
",. c #649C09",
"<. c #639B14",
"1. c #4CA303",
"2. c #55A302",
"3. c #5BA302",
"4. c #5CAA01",
"5. c #55A30B",
"6. c #5BA30C",
"7. c #5DA90A",
"8. c #53AA08",
"9. c #5DB204",
"0. c #4DA119",
"q. c #54A212",
"w. c #5BA413",
"e. c #5AA21B",
"r. c #5AA917",
"t. c #58B214",
"y. c #62A401",
"u. c #6AA503",
"i. c #63AC02",
"p. c #6BAC02",
"a. c #63A50D",
"s. c #64AB0B",
"d. c #6AAC0C",
"f. c #72AD03",
"g. c #74AC0D",
"h. c #64B302",
"j. c #6BB403",
"k. c #6BBC03",
"l. c #64B20B",
"z. c #6BB30B",
"x. c #6CBC0B",
"c. c #63BB08",
"v. c #73B503",
"b. c #74BB01",
"n. c #7BBC02",
"m. c #73BC0B",
"M. c #79BD0C",
"N. c #77B50A",
"B. c #63A513",
"V. c #63AB14",
"C. c #6AAC13",
"Z. c #64AB1B",
"A. c #6BAC1B",
"S. c #67A51A",
"D. c #72AA16",
"F. c #64B313",
"G. c #6CB313",
"H. c #6AB717",
"J. c #72BA12",
"K. c #7ABC15",
"L. c #75B51B",
"P. c #7CB51D",
"I. c #7ABC1C",
"U. c #76B616",
"Y. c #488727",
"T. c #528B28",
"R. c #4D9924",
"E. c #549423",
"W. c #5B9C22",
"Q. c #569928",
"!. c #4B8738",
"~. c #558937",
"^. c #499633",
"/. c #579937",
"(. c #629926",
"). c #639738",
"_. c #729C38",
"`. c #5BA626",
"'. c #59A638",
"]. c #51A726",
"[. c #64A524",
"{. c #64AC22",
"}. c #65AC2B",
"|. c #6AA727",
" X c #74AD27",
".X c #6AB426",
"XX c #74B42A",
"oX c #77B926",
"OX c #69AA38",
"+X c #72AE35",
"@X c #6CB13C",
"#X c #72B53B",
"$X c #78B836",
"%X c #6AC104",
"&X c #73C203",
"*X c #7BC403",
"=X c #7BC30D",
"-X c #76C70B",
";X c #7DC313",
":X c #7BC31B",
">X c #79C717",
",X c #7AC325",
"<X c #79C434",
"1X c #3D8440",
"2X c #558747",
"3X c #579545",
"4X c #5A8D57",
"5X c #5C9558",
"6X c #4B8E4D",
"7X c #65974A",
"8X c #649557",
"9X c #5AA447",
"0X c #69A948",
"qX c #74AA49",
"wX c #77B64A",
"eX c #67A756",
"rX c #78B558",
"tX c #72AB54",
"yX c #579166",
"uX c #669A65",
"iX c #73AC6D",
"pX c #5EA664",
"aX c #7EC452",
"sX c #83BA04",
"dX c #85BD1B",
"fX c #87B92D",
"gX c #86C708",
"hX c #93CA09",
"jX c #8CD50B",
"kX c #86C717",
"lX c #97D818",
"zX c #92D015",
"xX c #86C826",
"cX c #8DD223",
"vX c #84C538",
"bX c #96D12B",
"nX c #A2DB2A",
"mX c #A0DD1B",
"MX c #85BA42",
"NX c #88B759",
"BX c #87B870",
"VX c #84C447",
"CX c #92C74A",
"ZX c #86C559",
"AX c #97CE52",
"SX c #AEDE47",
"DX c #90CB6B",
"FX c #A5D26A",
"GX c #B0E57E",
"HX c #75AC92",
"JX c #91BC94",
"KX c #A7BEAE",
"LX c #ACD5A0",
"PX c #D1FAC2",
/* pixels */
"4.%.x 2.&.g.2.0Xj.gX Xo.v.iX@.w.} 6 ` x.u.Q.4.( gX*./ n u.OX>.Z.>.+.>Xz.4.J @X3.i $ } w u E.6./ e.m.",
"j _ @.m.L.h.j.8.-.] BX9.H.` } j.^ q.P sX` w U z.vX=Xi..XE ,XrX/ W.0X.Xz.d.O.rX#XL O.} b ] E 0X{ ! } ",
"5./ [ ( !.G :.] J.' Q.wXy k q.Q &X0XW.{.<XHXe.MXL 0 ~ i.4XP e.2.6.z.i.T.i.=.T.L.7.V.R e.4.FX-.E F.W ",
"M.+XsXr.x.&.X.f./.Z.F.<.^.OX'.5.n.v E R.VXr.q ^ `.|.s f.H :.K x.j.p.:.B.s.7.E ) XX6.3.a.Y.9.R.o.*Xd.",
"X.s.<. .I T.].Q =.i ' R.v.r.v ` w.d.K =.8.R %X}.E 0 x.s.wXB.M = gX' T./ ZX4.H.0X} p.b./ E ' ] ( { ).",
"^ kXU A.%X^ C +.z.Y.y.G 4.7 d.[ ].e.} =.5.5.{.}.!.#Xc.+Xt g.0.'.K.z.[ ) k } P Z.W :X; B.R / E a.a.S.",
"Q v.T r.^ H p.L.) G.s 3.t.%.6.[ T &.).R.] _ Q.;.E.8 =XeX*X9Xt t.oXE W.] ) / `.{.%.3Xi.k.r m.E r.S.s.",
"/ &.Q m f y.=.O s j i G.}.s aXH 6 b {._ Y.n.6._ ^ 3XCXe.l Y h.] _ Q.F.K e.} a.z.L.Z.b 7X6.z.[.3.0XR ",
">XrXe. XoX* 6.! I {.` l 1X+.E. X1./ j f.e W.^.y.;.w.Q.C.vXa.3.oX6 X.2.n.dXb.G.`.U G.|.zX6X`.} XX, U ",
"1 ' z.n.oXh i./ I 5.r.:.1.R r.A.{ } : 6.L 6.r.,.eXa d.rXE.V.;.E A.o.U.bXFXP.0 u 0 }.3Xi.0 Q.x J.2.DX",
"&..Xe.=X$ ' &.x.@..X/.3.x...u L.A.L 6.f.^ k =.xXD X.E -XNX*Xq P : <X/ J 0 .Xk 5 R ^ U %.V.A.7._ z.-X",
"!.B.] B.vX>.q i.a b J.@./ 7.q 0XY.j i.FX; 3XB.7.0.3XkXZX6.2.L J.} G.P [.C.^ gXZ.' V.( q w.| G.&.|.t ",
"O.).>X' 5XC.^ }.m.m.Q./ .Xl %./ kX( z.yX6 U y.p 0X'.5 [.>.DXH.s p.VX[ ] 0X, Y 5.;.T.d s.$Xi.} 3.VX-.",
") u H oXP #X5 , G.k ' H.E.5Xe.`.4.r.s.eX6 U [ '.`.X.!.L..XY.E.>.} l k.T P 6 ` y F...4XA.; <XY.wXZ } ",
"M.kX-.~ m.9 3 *.X.%.g 0 [ P :Xr.'.J.kXl.7Xj.W.I ) pX9.I W.L.u t k.w.6 z.qXM >.W rXp y.:XwX# m *X3.Q.",
") A.&XA./ [ } Y.0 = ..R.oX0 J U ^.$XM.'.U.*X  MX-X, x % /.j |.+X@.} W.L rXk 0.`.+ 3Xi.G.r.$X;.L eXZ.",
";.6 j.w.= $Xi gXl Q J &.w .Xt T.^ ] V.[ [.B ZX/.) I d X `.@.M.W.~.z.) y dX$XK.' Q # `.L.} @Xu / n _ ",
"m e.*.` 8 ; R.).tXg s.q R *.>XE s =.w rXOXJ ; ,XQ.: L m.y w kXX u R l 8.{ B.K.Y.$ E J o.1 - l $X6 ( ",
"oX.XI.C.$ XXN z.w } Q } %X3XG.aX/.a - 2.| ; n.p } &...z.wX6X>.OXJ K.{ `.-Xa N %.r.L s @.l.s.+ s.p &.",
"W.* a 4.8XqX@.*X/ R.p I.X.i I.;., Y.jXR.R E.GXj.i d : - Y.w ; w &X*.2 - j L c ; g ^ l i {.] >.W.Z v ",
".Xo.3X#XvX6.4.% jX- { K.; g ,X-X< 1 t ;.i d.v zXT.B.T.8 / .X0X6.{.XX2 kX^.j A.r.d z c u oXR x.BX: L ",
"q 5 .XxX% w.! pXi.# j..X@Xx.-.S.Q @.q.% j tXQ.1 eXm.q F.$ / w w W xX] P.0XuX% g } # k %.; %.a 2XyXY.",
"s 2 Y q lX4.y ` > : 4.>X.X3.Z.VXxXqXI.E.oX.X-XiXe.K./.S . ZXU   oX' l.d.o kXm $Xo Q o.O.O.;.{ r *..X",
"- a R.r oXE +.` = w p # W R g |.1 ,Xf /.).l z.X l.1 g X.> +.w . zX! y C   G.I ! 9 > cX:.>X{.0 | G.ZX",
"fXU p , ' l ).-.b _.J.<.] G.J U.f ] o [.%.$X Xw gX3 q.p BX@X}.P.gX3 $.0.oX; , l.r.V.=.eX;XN e.O.!.XX",
"[.:X%.M U.6Xd.: :.Y.gXp q.^ I p.E.- J.cXj.H.qX& ^ S :./ 8XM.qX;XbXQ x `._ |.Y.>.o.J.|.i A }.a J > -X",
"Y.T o.M 7X* > j.k.S.jX@X1 Y & d.-.`.u $XE.! N | / { r C C.N.o W a NXy <.^ 8 lXN -X XR R ).v = T.#X2.",
"0 R.%X4.h.w.& ).*XOXA.} G.% 1   >.I.! }.l 9 bX<._ 5.@XHX.Xm.! w xX:XC Q.1.eXs.[.] P.v.FXi.v P & !.}.",
"' SX/ u.9.Q X.h kXXXS.cX8 N g D.( xXbXR h 1 4X>X,.M.wX8XT.CX2 l bXK 7X$ j , g T.1.V.fXE.U.l :XJX!.X ",
"nXr ~.,.&.N.U 2 [.N.H.lX2 wXrX*XjX~ E >X! H.z sX{ P.XXi i $ cXT =.2.XXF.X q.h dX( 1 :.z e W O.F h m ",
"$ f 8 AXj./.o gXd.$ +XwX6.  Q...y.kX6.K.f.i.R.gX XCX[.kXC.l =Xq ;X`.gX&.- v.!.hX8.Z J o.[ OXq.`.c *.",
"k.h.(.z :Xr.i.h j.oXb : d.^ W H  .FXo ,XxX[ Y.8 #.8 _ r g.* 8.V (.fX8 GXo.h.Y.nX/ q }.>X .] b 8.l.. ",
"&X;XY.3Xj.: p.Q.0 [.&.p.G.i.[ r.w NX@ z.VXB } i B 3 b.* >.F.W qXV /.$XD.;Xd.6 mXnX;.v.l._ m BX& {   ",
"Q m :X_ I.=XxX8 6.# z.< [ t [ w.a o C.gXo.MX&XOXxX#.l VXbX8.1 e.o DXp 2 J.[ 9XsXgXY.xX1 / m.B.+.i.C.",
"3.9.^ 0 /.sX-.gXM.d.{.Y.i v.d 3.y.7.3 9.xXG.N.3.9 3.r s w i 2 #.q >.Q.f 9 Z.: SX9 i I.*XJ i.C   dX7X",
"s $ W mX. _.l.oXK.&Xu.e.Q oXa v. Xk eX^ q oXf.lXB ' vXJ =.gXh 0 VXY.!.$.;XW @.N 3 Y.oXtXx.% {.- y.L.",
"..PXV.N.m.:.jX0Xv.F.D.}.E 9 >X*X$.U 2 w g 2.hX9 @.gXN.r U b.$ [.=.$X, v.N.7Xk.g.C.1 ' zXiXi > R.*X$ ",
"s.BXs dXn.qXW 7 a.@.8 gX( lXl.K.;Xt q h.|.i 4 T.B.^ y., ) FXt k u dX] gXNX& G.r n.. f ).g =.J.= |.! ",
" X8 } {.$.kX<.= w $XyX,XP.;.n./ p k 8.gXq.|.!.{ J p.i $.d.%.{ b.J.hXj lXXX8 }.] kX .S.JX; 9.I.y b.W.",
"5Xx.fXd & f 9 Z.y X ; e / @.a.5 1 h #X .h ~.G d.d K.G g.2.x 0 gXS.g.U q R 1 5X>XN.BXtX2Xa %X+ = NXuX",
"b.rXi.w m.t s.*X;Xk.k [.' w C.h H.KX4.  hX#XC k.-.x.m.n.9.>.s ;XV.0 u / ; ;Xn DXi.gXx ' E ;.= DX/ < ",
"1.N.H.p.jX0 zXcX3.C., { f t 8 iX^ fX+Xh kXM 0XB gX( #.4.h.l.3.& W.pX1 _ U 4.X.J d kXq.zX] 5 U f.m 6 ",
":.kX' gXp.b nX4.U._ Y.MXv Y.A.$.}  .J 9 R u Z.DXN.xXC.c.h.k W.2X>.F.k 0 5 Z.^ {.&.- 7./ xXrX/ ~ * XX",
"d h.  v.~ g.f e B.2XR | e u y $X|.$ 5.- o.kXJ l.W a.s 6.6 s.5.. / 6.u J ; w.tXp ) Q P LXD.3X6 e , B ",
"w 2.! y.oXg.j.+ N 6X9 g.1 4.C.] * -XW 9 L b ] e ^ 3.a y.X.g 5.( B.JX=XO.l | |.o.3.zXh.3 * ! K w o E ",
"2 f jX[ B.# 2.6X2Xq d...e DX  v.& &Xe - * # ' =.K 2XkX{ n.H s.` 3X! =.w $.2 ,.W MXy._ & a.t 7 #X~.u.",
"g BXK.% Z x -.uX>.c.; u.B.J n b.U.| 2.Q ~.E.> &.}.=X+X8  Xt d.`.rX{ 5 s.h Q.2 ' N B.( 9 3.VXK ' Q./ ",
"AX4X4 : j : 7 s.4.h.o.[ d.] 7.sXm.u./ U.uXT hX`.Q kX> | Q.Y.[ D d d # - }.2.a ] S.kX6 . u A.=.kXQ a.",
"e g ) }.u x K %.R p d v.L.X 9 gXhX9 o.iX| i gX} p.Y.I.[ w i .XS K B 0X<.a q ,.$.* ~ ) J BX| @Xu...8 ",
"$.1 6.R / % 7.K A.8 o.gXC.X >.sXzXa gX< 1 m.p.X.tXJ gXXX$XE ; | y { 5 D.oX/ * AX2 zX} 2.g R R.oXd 1 "
};
