/* XPM */
static char *_75530e69c9c412a87ca95227540e2bfEYHsmajSjwrR5j9p[] = {
/* columns rows colors chars-per-pixel */
"50 50 256 2 ",
"   c #020202",
".  c #0A0202",
"X  c #020A03",
"o  c #02020B",
"O  c #040B0B",
"+  c #0A0D0C",
"@  c #0B0308",
"#  c #150707",
"$  c #0C110D",
"%  c #03110C",
"&  c #19170B",
"*  c #020312",
"=  c #010C14",
"-  c #030C1B",
";  c #0A0A16",
":  c #031313",
">  c #0E1412",
",  c #09161B",
"<  c #111615",
"1  c #121916",
"2  c #12151A",
"3  c #151B1C",
"4  c #191D1D",
"5  c #1A1518",
"6  c #120A16",
"7  c #231817",
"8  c #2D140F",
"9  c #16211D",
"0  c #1B251B",
"q  c #0E231E",
"w  c #272518",
"e  c #382810",
"r  c #030928",
"t  c #021423",
"y  c #021B24",
"u  c #02142B",
"i  c #011B2D",
"p  c #0B1927",
"a  c #161E21",
"s  c #1A1D22",
"d  c #141729",
"f  c #021C34",
"g  c #051938",
"h  c #161336",
"j  c #0A092F",
"k  c #271A28",
"l  c #08242A",
"z  c #162122",
"x  c #192324",
"c  c #18262B",
"v  c #02243B",
"b  c #072838",
"n  c #162837",
"m  c #073139",
"M  c #183B3F",
"N  c #252829",
"B  c #342825",
"V  c #262A34",
"C  c #27353A",
"Z  c #38383A",
"A  c #35322A",
"S  c #4F3419",
"D  c #4B3830",
"F  c #5C290E",
"G  c #34433D",
"H  c #0C483E",
"J  c #78470E",
"K  c #514830",
"L  c #714E2D",
"P  c #615727",
"I  c #061947",
"U  c #041F55",
"Y  c #0D0E47",
"T  c #042847",
"R  c #142B48",
"E  c #043549",
"W  c #183648",
"Q  c #032A56",
"!  c #053859",
"~  c #173A55",
"^  c #132951",
"/  c #253544",
"(  c #3A3B46",
")  c #263956",
"_  c #2A2E4A",
"`  c #043C64",
"'  c #053767",
"]  c #073E78",
"[  c #11346A",
"{  c #0A1D67",
"}  c #4A3D4D",
"|  c #463E63",
" . c #09425A",
".. c #1A4558",
"X. c #0C494A",
"o. c #3A444A",
"O. c #254659",
"+. c #384857",
"@. c #2D4B54",
"#. c #05476A",
"$. c #174866",
"%. c #16556C",
"&. c #034977",
"*. c #065676",
"=. c #1A577A",
"-. c #0F4E6D",
";. c #264865",
":. c #285568",
">. c #385566",
",. c #275A76",
"<. c #3A597A",
"1. c #2F4971",
"2. c #126273",
"3. c #3A6577",
"4. c #2D6272",
"5. c #454A47",
"6. c #565757",
"7. c #4E514F",
"8. c #6F5649",
"9. c #596250",
"0. c #49576B",
"q. c #51576D",
"w. c #526A75",
"e. c #697779",
"r. c #70706D",
"t. c #746057",
"y. c #86593C",
"u. c #926B35",
"i. c #AE6E17",
"p. c #CF7A03",
"a. c #8C6E4F",
"s. c #8C7468",
"d. c #708072",
"f. c #498178",
"g. c #BA8B39",
"h. c #C98D38",
"j. c #E6A235",
"k. c #958A71",
"l. c #B49973",
"z. c #B6A16F",
"x. c #B39156",
"c. c #CAAD72",
"v. c #DEA261",
"b. c #E8C376",
"n. c #044C86",
"m. c #045787",
"M. c #165986",
"N. c #055C95",
"B. c #104E91",
"V. c #285889",
"C. c #04668D",
"Z. c #1A688A",
"A. c #076597",
"S. c #11769A",
"D. c #296886",
"F. c #376C86",
"G. c #37778A",
"H. c #2D6A94",
"J. c #287799",
"K. c #367997",
"L. c #326F90",
"P. c #1153A9",
"I. c #0775A6",
"U. c #1676A7",
"Y. c #077AB1",
"T. c #0F70AC",
"R. c #397DA3",
"E. c #2D76AA",
"W. c #3554A7",
"Q. c #49668A",
"!. c #457488",
"~. c #457999",
"^. c #55778D",
"/. c #6F7E8C",
"(. c #477DA7",
"). c #167FC0",
"_. c #35849E",
"`. c #0386AE",
"'. c #0788B6",
"]. c #188AB1",
"[. c #3A86A9",
"{. c #358BB8",
"}. c #2A94B8",
"|. c #3190B3",
" X c #4A849C",
".X c #588590",
"XX c #748991",
"oX c #4586A7",
"OX c #598AA8",
"+X c #4994AA",
"@X c #5898AB",
"#X c #4A95B8",
"$X c #5896B9",
"%X c #538CB4",
"&X c #6A8CA6",
"*X c #6897A9",
"=X c #6597B7",
"-X c #7193B1",
";X c #55A8BB",
":X c #77A5BB",
">X c #6AA8B4",
",X c #0C90C9",
"<X c #3395C9",
"1X c #11A5D2",
"2X c #36A6CA",
"3X c #30AAD6",
"4X c #34B6E2",
"5X c #01A0E4",
"6X c #4E99C7",
"7X c #699CC6",
"8X c #47A6C9",
"9X c #58A9CB",
"0X c #58ABD6",
"qX c #58B7DB",
"wX c #4CB1D6",
"eX c #6AAAC9",
"rX c #77B5CA",
"tX c #6AB7D8",
"yX c #77BBD9",
"uX c #70ABD0",
"iX c #4DB4E5",
"pX c #65B8E4",
"aX c #78B8E4",
"sX c #6AB6E9",
"dX c #5AC1D9",
"fX c #5FC1EE",
"gX c #73C3E9",
"hX c #6AC8D9",
"jX c #8A9295",
"kX c #8C9BAD",
"lX c #85A7BD",
"zX c #91AFB4",
"xX c #A7ABAB",
"cX c #9EA294",
"vX c #D1BD8C",
"bX c #CBBA93",
"nX c #DEAB9D",
"mX c #BAC1AD",
"MX c #D6C592",
"NX c #EDD691",
"BX c #D4C9AE",
"VX c #EBD8B1",
"CX c #F3EAB7",
"ZX c #FFE494",
"AX c #8CB3CB",
"SX c #8ABEE2",
"DX c #A2B0CD",
"FX c #90C9D4",
"GX c #AFCCD6",
"HX c #90CCEE",
"JX c #A2D7ED",
"KX c #ACD8F3",
"LX c #FAF6CE",
"PX c #FAFDEA",
"IX c #FBFEF8",
"UX c #E9EEF4",
/* pixels */
"+ + $ $ $ $ > > < : < $ $ 3XqX>XE _ A D j.IXPXIXIXIXPXLXCXp.# # $ ].JXeXoXn.5 $ < < < > > > > $ $ $ ",
"> > > > > > > > < < 2 & I iXqXoXQ / } K h.LXLXLXPXPXPXCXZXi.# 2 ; HXKX9XoXm.2 q > < < < > > > > > > ",
"> > > > > > < < , < a 3 `.0XtXY.' 5.} S i.b.NXZXNXNXb.NXj.L 8 & < JXFXrX=X#.m , 1 1 1 1 1 1 < > > > ",
"> > > > > < < < 4 2 1 v fXwXtX,X' o.A F i.h.g.h.h.v.mXv.i.L B w 7 KXJX8XK.' g s 3 4 4 4 1 1 < < > > ",
"> < < < < 1 1 3 < l 7 *.pX3X8XY.&.O.V y.u.u.a.u.u.s.E.a.y.P B B c FXKX8X|.m.E a 4 4 4 4 3 1 1 < > > ",
"< < < 1 1 1 3 3 9 l V |.<X8X0X'.&.>./ a.8.a.s.s.s.#XM.8.L t.S K nXFX8X6XE.` E x x 9 4 4 4 3 1 1 1 1 ",
"< 1 1 1 3 3 4 s N 7 n uX0XeX8Xn.! +.5.s.r.t.t.s.s.{.N.7.L 8.D & AXaX'.uXI.&.` W c x 9 x 9 4 4 3 3 3 ",
"1 1 3 4 4 a x x c V V eXwXFXeXT.#.0.r.jXe.6.r.e.XX6XN.>.8.5.k a.FX6X1X:X] *.' W N c x x x 9 4 3 4 4 ",
", s < 9 z s w L a.z.k.SXtXSX9XA.! >.r.d./.q.e.e.aX2XA.O.6.5.n .XAX8X9X-X&.[ m W a.a.L w a k s q 9 3 ",
"5 4 z 3 7 L x.c.NXMXMXuXyXSX:X&.` ;.r.Q. XF.XX/.tX,X#.0.5.+.t.%XHXJ.#X~.N.R W ) l.c.z.s.B 5 3 4 x 4 ",
"x 3 , & y.x.b.NXNXNXNXgX0X9X@X#.#.-.Q.1.*XAXe.[.4X,XM.0.;.4.4.pX{.$X].M.N.T T ( c.MXvXl.8.N V V N x ",
"x , N 8.c.NXNXVXCXCXBXAX<XqXAXA.Q #.#.;.q.-X X4X,XA.#.:...w.(.A.m.Y.C.*.n.A.T +.c.MXMXbXk.Z / / Z Z ",
"x n r.l.MXNXCXCXLXCXBXAX2X2X=XA.Q ^ n 1...[.I.HXiXI.g v ..G.*.m.#.I.Y.A.-.*.M.:.c.vXMXMXk.7./ n ( 5.",
"c w.jXbXMXVXVXCXVXVXmX|.tX}.>XC.) i / ) E 1XdXtX].Y.G.) ^ 3.Q ` n.-.#.! M.&.m.R c.vXMXbXk.5.n c C +.",
"n !.zXBXMXBXBXBXBXBXxX6XeX{.&XA.` p v ^ iX5XJX|.{.C.` h $.<.&.kX0.&.] v Q E ~ n.z.vXbXcXe.W - t W 0.",
"N 3.*XzXxXxXcXk.jXcXAX9X@XHX=XI.&.u M.gX1XKXpX<X].N.#.' 2.-.n.@.~ ' &.u r -.` ! d.s.s.XX:.$.b i R 3.",
"N ..+X:XlX=X.Xq./.XX&X0X=X+XAXI.` [ ].3X3X`.6X' S.Y.] ' ! M.L.: n v R.f XXr.7. .o.1 +.^.V.%.b R 3.OX",
"V ~ ~.=XAX:X-X&XjXkXOX9X6X9XuX}.C.Q J.,XtXeXU.Z.oXU.#.q.v #. .] U g g D.r.8.6.<.b V $.q.~  .$.*. X=X",
"C W :.OXeXAXSXrX:X-Xm.}.FXGXyX9XS.n.T.fX<X,XFXyXn.&.' ! J.#.{.&.[ E $.q.Z P ! t ^.w.T ~  .v Z.$X%XoX",
">.>.:.=.[.rX;X#X+X=X`.' GX+XeX=X&.-.HX3X#XHXSX9Xj f.*X` &.XXQ $.Q u ~ E o.( T !.^./.T #.T ! (.$X#XJ.",
"3.3.G.H.Z.Z.+X%X.X[.T.S.=XJ.~.' lX,XpX2XiXD.#XZ.<XC.M.' =.H.J.}.m.h n u u d T 0.3.6.Z ! $.F.OX$XK.Z.",
"OX X X~.H.*.=.=XOX/.*.=XzXzXS.J.#XHXgXC.].iXHXaXU I.U..XA.<.Q.,.U.! [ X u =._ w.- 6.K n >.w.^.D...$.",
"=XeX=X-X~.J.R.eXrX@XFX!.C.DXGXKXyXJX;XJXrX3XHXAX}.{.t.%.0.) u {.' n.E i E i p o.6.o.D p :.w.O.u i E ",
"9X$XOX&X XJ.J.eXaX>X-X%XtX#XG.,XhXHXtX).2XJXuX[.H.^ 1.E.!.^ T g #.l W ' [ : : | 8.W - b V f - - i ~ ",
"R.[.%.%.K.H.=.Z.@X[.*.&XtX;XeXFXuXI.v V r fXI.<XP.I I T Q V.~ =.I t t r b C u y 6.6.= - - y X.$.W ~ ",
"W n W W ;.D.K.F.` E v f rXAX,XwXwXB.[ o . T.sXT A.V.=.t Q j g r     .   Q l n n 5.-  .E W O.,.;.~ O.",
"b n >.3.F.K.+X~.Q.2.D.'.8XU.HXsXaXQ X 2 +   ;X,XC.,.I $.I y *..   o   o ) N.c ) u 0.e.q.3.R T ` $.$.",
"G.G.G.OX;X$X7X$XL.!.9XuX<X].9X3X}.B.w.a 4 . ) P.M.' I I ..g U         S p #.-.>.m 7.7.7.W r u E #.#.",
">XeX+XK. X$X$XK.D.B.>XeXuXwX}.qX<XIXUXIX3.3 ; *.V.] ! U g #.p   o - l J   W T ; C V V + l $.$.E T E ",
"7X7X#XK.F.=.Z._.@X@XK.%.V.JX6XxXU.<.{ #X[.Z 8 eXU.-.' Y v g r @ m.A.'.F i c ..>.i - + ; E $.$.Q b W ",
"#.*.-.#.~ ..,.%XuX@XoX=.K.uXAXkXAX#.D L y.# A oXV.J.&.m.E v ..  S z &   o n r R _ ( n f ~ ) m v W O.",
" . .v b m ..:.-.L.K.Q.M.A.2XlXlXuXgXL.x.S K }.6XN.<X! ] =.! @ v . .   I d p c N V n y a N - y ; l W ",
":...W ..$.,.:.W u : v E ,.'.Y.E.<X6X'.N.6XHXOXM.yXiXX.C ! u p t - u i g r ; ^ : l o   +   * i f i b ",
"$.....;.%.,.:.O.f u i f U.:X<XuX9X}.wX!.GXhXgXaXaXA.,.H ;.R ^ v O #.r h X V E b c s o > x l b v i T ",
"~ ~ W v T ..;.W E ,.L.G.H.>X. # qX`.B.].qX,X1X3X{.T.f  .( # l v *.= FXd Q Q = V ( o O 2 : p l t = t ",
"- , , = - l p o ! L.F.^.Q.AXmXAX8XS.P.j ,XyX}.r j Q W._ D 6 2 T   = - o  .I h O N         o   o     ",
".               * m E l T [.&X0.S.A.r |.m E.@XY *.E { I U j @ Q I ' 6 u b - c @   X     @     .     ",
"                  .     o + m.#X-Xh eXZ.n.! w.+.~ Q t 6     y g 6 m o l d                         + ",
"                o   *     o DX&XT *X6 T *.^ l #.r #   o Y T y * r : X f T w .   .             O + 2 ",
"X X             . X     . . b lXF.w.* x _ v t r o   * h k X # 5 j @ * V 7.  .         X + O 2 > 1 3 ",
"> > > > + O         o   u HX(.:.XXW 5 6.W n &.f t = * 6 B c   o   / c 5.:.3.n   O O + > > > 2 2 3 3 ",
"< < < < < > > > , 5 , p dXSX#.E T 0.7.s 0.R % = o * ; * n 4 ; % ; N 5.X f #.=., > > > < 1 1 3 3 3 3 ",
"1 1 3 3 3 3 4 4 d s N _.HX#XE ! u o + K 9.& w R m > t X O O l z B Z u n p l ,.~ < < < 1 3 3 3 3 4 4 ",
"3 3 3 4 a a a a , a 3 kX*XK.g r       e.a.A e & 7 x 4 s > % 7 B o @     d - i z 3 1 1 3 4 3 3 3 4 4 ",
"3 4 a a a z z z 0 p q 6.G ;.u - . .  ..XA J e B . @     #     . A   o . o   5 s s 4 3 4 s 4 4 4 a a ",
"3 3 z z x x x x 0 s k C W O.v 2 o   !.^.2 w e & @ 0 d   @.3     &       - 4 N l x a 4 4 s s 4 4 a a ",
"3 a z z x x x x 4 c s o.M +.= , % o ..@.z w & o   6 <   x   o     &   : f l C C x a 3 4 4 4 4 4 a a ",
"z z z z x x x c c s c 7.G G p   X.-   ! K P A 5 & X           & N D o t g - n ( x a 4 4 a s 4 4 a a ",
"z z z z x x x x x x N K x D = o y p     o.K     < 1   X   . 1 + 4 C 9 t f - f G 3 z x z a 4 4 4 4 4 ",
"z z z z x x x x c x 9 K ; K l V y =     N e           $ 1 @ 0     x x t T = n 7.3 z x z 4 4 4 4 4 4 "
};
