/* XPM */
static char *_92e6c49954c48f7c0197785408d2a7aKKfxBbqanGSqQk5U[] = {
/* columns rows colors chars-per-pixel */
"50 50 250 2 ",
"   c #050200",
".  c #0C0301",
"X  c #0D0A0B",
"o  c #080706",
"O  c #110400",
"+  c #130B03",
"@  c #1B0C01",
"#  c #160D0A",
"$  c #1D1200",
"%  c #1D130C",
"&  c #090812",
"*  c #1C0E18",
"=  c #181616",
"-  c #230D01",
";  c #2B1B0C",
":  c #25170A",
">  c #231A15",
",  c #291C14",
"<  c #2C231C",
"1  c #2A2117",
"2  c #342413",
"3  c #3B2B1E",
"4  c #372617",
"5  c #343117",
"6  c #38220E",
"7  c #1F2120",
"8  c #2A2624",
"9  c #3C2D24",
"0  c #372C28",
"q  c #3D3223",
"w  c #3C342B",
"e  c #3A3534",
"r  c #382F34",
"t  c #431F07",
"y  c #43260B",
"u  c #452B17",
"i  c #49351B",
"p  c #5A3A1A",
"a  c #552D14",
"s  c #443324",
"d  c #4C3B24",
"f  c #43352B",
"g  c #44392C",
"h  c #4C3D2C",
"j  c #483523",
"k  c #573D29",
"l  c #4A3D34",
"z  c #453C36",
"x  c #663B2A",
"c  c #68501E",
"v  c #4C422D",
"b  c #584429",
"n  c #4E4333",
"m  c #4B433A",
"M  c #47413B",
"N  c #5C4C3B",
"B  c #574736",
"V  c #5D5336",
"C  c #644829",
"Z  c #664D38",
"A  c #63533B",
"S  c #6B543B",
"D  c #6A5538",
"F  c #75583B",
"G  c #755A2B",
"H  c #78613F",
"J  c #4E4744",
"K  c #554B43",
"L  c #5B4E42",
"P  c #564B49",
"I  c #5C5347",
"U  c #575551",
"Y  c #635443",
"T  c #6B5B43",
"R  c #62554B",
"E  c #655A4D",
"W  c #6B5C4C",
"Q  c #675746",
"!  c #715C45",
"~  c #755C47",
"^  c #635A53",
"/  c #6B5E53",
"(  c #635856",
")  c #6B624D",
"_  c #74624C",
"`  c #7C644C",
"'  c #7A6849",
"]  c #6D6255",
"[  c #6E645B",
"{  c #68665A",
"}  c #736554",
"|  c #7C6A53",
" . c #72645A",
".. c #746A5B",
"X. c #7B6C5C",
"o. c #776854",
"O. c #7C715B",
"+. c #6C6864",
"@. c #756C63",
"#. c #7A6E63",
"$. c #746B66",
"%. c #6E7069",
"&. c #7C7364",
"*. c #7C746B",
"=. c #7A776C",
"-. c #7E7875",
";. c #766C77",
":. c #856C39",
">. c #856948",
",. c #856D55",
"<. c #856C59",
"1. c #847155",
"2. c #83735D",
"3. c #8B755C",
"4. c #8C795A",
"5. c #94745A",
"6. c #8F6F49",
"7. c #A27E5B",
"8. c #827463",
"9. c #8A7765",
"0. c #8B7A65",
"q. c #82756B",
"w. c #847A6B",
"e. c #8A7C6C",
"r. c #867867",
"t. c #927C64",
"y. c #927E6C",
"u. c #917766",
"i. c #847B73",
"p. c #8A7E73",
"a. c #867B77",
"s. c #846E61",
"d. c #9C835D",
"f. c #A38359",
"g. c #8D836D",
"h. c #938264",
"j. c #94836B",
"k. c #9A856C",
"l. c #9C8A6D",
"z. c #98876C",
"x. c #8C8174",
"c. c #8D837B",
"v. c #88867A",
"b. c #938474",
"n. c #938874",
"m. c #9A8A73",
"M. c #92867B",
"N. c #948A7B",
"B. c #9B8C7B",
"V. c #9A8474",
"C. c #9C917D",
"Z. c #A48C6B",
"A. c #A28C74",
"S. c #A18D7B",
"D. c #A58972",
"F. c #A2917C",
"G. c #AB957B",
"H. c #AA9679",
"J. c #B49676",
"K. c #7F7A80",
"L. c #837D8A",
"P. c #8D8A83",
"I. c #8A8582",
"U. c #958C83",
"Y. c #9A8E83",
"T. c #958A87",
"R. c #9C9285",
"E. c #9C938A",
"W. c #9D9A8C",
"Q. c #97948B",
"!. c #9B9693",
"~. c #8E8C99",
"^. c #A29484",
"/. c #A59986",
"(. c #AD9C84",
"). c #A2958B",
"_. c #A59A8C",
"`. c #AA9C8C",
"'. c #AA9484",
"]. c #B39D84",
"[. c #B39E8B",
"{. c #A59C93",
"}. c #AA9E92",
"|. c #A79B97",
" X c #AC9789",
".X c #A8A18C",
"XX c #B3A48D",
"oX c #BAA38B",
"OX c #B8A688",
"+X c #ACA194",
"@X c #ACA39A",
"#X c #A8A599",
"$X c #B3A494",
"%X c #BCAA93",
"&X c #B3A59B",
"*X c #B5AA9B",
"=X c #BAAC9C",
"-X c #B9A796",
";X c #B7B19E",
":X c #AEA7A8",
">X c #B4ABA2",
",X c #BAAEA3",
"<X c #B7ABA8",
"1X c #BDB2A4",
"2X c #BDB3AB",
"3X c #B7B3A9",
"4X c #BCB8B2",
"5X c #A29EAF",
"6X c #C3A68A",
"7X c #C3AD96",
"8X c #C4B39C",
"9X c #C9B599",
"0X c #D8BC9D",
"qX c #C3B4A4",
"wX c #C6B9A6",
"eX c #C2B6AA",
"rX c #C5B9AB",
"tX c #CBBCAC",
"yX c #CABAA3",
"uX c #D2BDA4",
"iX c #D2BCAD",
"pX c #C5BBB2",
"aX c #CABEB3",
"sX c #C9B7B5",
"dX c #C6B1A7",
"fX c #EDC19E",
"gX c #D4C2AC",
"hX c #D9C6AA",
"jX c #CDC2B4",
"kX c #CCC3BB",
"lX c #CAC5BA",
"zX c #D3C4B4",
"xX c #D2C6BB",
"cX c #D4C9BA",
"vX c #DACBBB",
"bX c #D6C9B4",
"nX c #DCD0BE",
"mX c #CEC4AC",
"MX c #E3CEB7",
"NX c #E7D4BB",
"BX c #E1CAAB",
"VX c #D5CAC2",
"CX c #DCD2C5",
"ZX c #C0C0C0",
"AX c #E3D4C4",
"SX c #E6D8C8",
"DX c #E5DBD4",
"FX c #F2E5D4",
"GX c #F7EBE4",
"HX c #EDE8E5",
/* pixels */
"P I n  .$X..< < k.Z A.j T H.3.k 5.k ; 8 l.5.| 9.iX7Xy F ! d G.0Xp 7.C >.Z C C p x H.o , |.X n K 8.R ",
"e./ |.b.I V 8.  h.T 2 -X[.b Z.G B +   kXy ~ | 3.F >.d.C F ,.].,.u ` ! S S ,.t.5.t 3 [ . $., $.l [ E.",
").].hXC.o.SXM.l.. <.,.9XB e.B.2     & E.F 3.%Xi <.b ! i >.6.J.>.S.o.$XX.8.XXS.T >.!.K ] +.g %.P c.I ",
"C.N.j.9XOXk.,.y.* 9 b i _ f . 8 P.1.& #XW y F S 5.t.Y ` ~ D.~ _.&.w.I +X*X..8.e.H.5X<X} @ , v.. n.xX",
"v ).<.J.c :.d.s &   . s  .V.oX>.u.6.P v.VXZ F k >.y i 7X,.` / I.{./ w.1X1Xc.N.&.g.;.K.h.b.% ..= T.T.",
"`.p :.d.J.- pX$ { -.@X{.}.qXD c fXf.>XrX<.p.4 a Z G.6 ` i T o.N.c.I x.&. .E ] N q  .4XD 2   n J / ] ",
"f.H.C D % z I %.R.] ).jXg.n } j.J.H j.^.k.xXM.u Z >.' ' | N.3XT.e.N.x.&.[ U.w.U.R.e.Y ` 3 . 1 I v R.",
"C 4 > e U #XQ.}.:XP a.T.W.n.@ dXFXZ.6.q.%X<.%.a.i.9 ~ ~ e.[ *.N.R.[ [ &.).x.pXI '.w.p @ q./ I.h l q.",
"@ o.U.U.*X3XwX).) z :XsXF.o.+X# '.G.A Y W B.rX2X}._. .c.*Xe.b.V.l.$.P..X ._.[ 5 > # . 2Xe.nX^.2.(.XX",
"W } 2X2X#XI.W.lXi.{.kXV.4.1.^.2Xg.%   2 B ^.x.&.n.] W n.c.&.q.f 5 3 j 4 4 , # % , l &XzXY %X| 3.%X%X",
"X.X.kXc.v.I.&X2X-.$.^.h.b Z.D.y.z Q.o g ^.zXo.o.N e.b.=Xe.m % : xXP T.r.W ^ q.C W A 8X].].(.MX4.m.%X",
"S.9.qX^.e.}.R._.|.$XD C b 7XuX9X0 P.lX< R i m.] } o.e.s 2  ._.i.V Z i + v 5.7.6X| NXk.k.A.l.l.7Xk.0X",
"9.0.9.k y.A.Z C | ` 6XC ~ MXk.OXY.} xXY.Y.b n.&.e.w.N.W +X`.^.;   ~.L.l 3.H.' z.d t.uX].k.F.SXoXhXhX",
"h.y.1.%XuXD 6XJ.G.~ C G.].k.8X7XD.W L yXX.} < R.*XL ; ; 2 m.T A 4.4.&.J ; J.6X% (.gX(.j.t.| h.yXgX1.",
"' | 4.S.8XS zXNX].t.H.oX6Xt.uXoX].'.@ B.d 8.L n $ `.`.F.S.V.B.} 1.n.P.%.  z v XXqX8XhXNXuX9X%XF.FX7X",
"' N 1.=XR.wXHX+XqX8.uXBX0X0Xt.iX[.(. .).; 9.j O T gX_ Y y.e.B.O.L...&.*.& X w pX-XS.F.A.H.uXuXj.l.oX",
"p.U.X.*Xw.E @.|.W.I.p.XX| 8.1XmX(.W K + { v.# o 4.A.C.=Xb.b.=X/.K Q.=.!.*.( &XX.H OXMXyXbX8X` G.7XOX",
"kXlXI @.*.I M.*.F.$Xp.+XW N %XuX_ g w *.>XE.lX8 S d A h Q W &X) $.E.i.3X@X>X3 wXOX].9XbXMXgXuX7X8XgX",
"$.[ *.-.4XT.>XY.}.zX,.k.k.G.8.Q : q.( |._.*X>X{.- i i S | 2.=X .E.>X3Xc.q qXjXj 1.uX9X7XNXhX%XMXyXMX",
"R.{.!.!.-.$.i.2X{.m.4.D.D.b + +.[ [ |.c.{.E.2X,Xf W b 3.1.! N.&XO.i.T.q.8.vX=Xe.@ h MXG.hXoX7X`.bX%X",
"*XM.|.$.@X#.kX&.S._ h 9 O n.R R m T.@X3XxX@XxXR.>Xh t.D 7Xb.`.} C.x./ p.C.(.qXM...2 Y hX7X8XXXmX%XT ",
"R.c. .3XM.}.1X} ; d 8.rX9 . E GXc.Q.DX$.{.@XpXkX|.qXl.G.(.$X^.n.g b.&XaX`.$ N.g xX@ 4 v gXgXSX.X0.F.",
"w.*Xx.+XW b.qXvX_.SXqX; X.,X+.:XlXa.c.pX<X{.Q.@XP.qXZ 3.2.8.R e.x.e.g.e.+XO SXrXkXc._.s S.oXl.D.t.! ",
",X] X.T j.9.$X[.OXN @ w <Xa.U.`.$.Q.E.@XT.!.-.!.P.*Xd | =Xx.N...^ /.0.$ E VX&Xx. .2X}.*Xd b u ,.D i ",
"_ d : $XtXX.g 9 X   +   |.a.i.VXxXE.T.2Xi.i.Q.{ c.E.@ &.} | A yX,.B Y Y.Y.rXV.Y B 1Xi.Q.v.o % l 1 : ",
"; @ $X; W n.^.q.0 { m % a.P T.CXi.2XlX[ #.>X@.2XE.*.% O W O.A s < .   X 7 8 ( o @ 9 M +.i.i.p.=XeXxX",
"n ]  .e.=Xw. .E.I @.}.>XO +.2XE 3XDX@X@Xi.c.c.T.kXc.z 0 > , =XtXU.[ { 2Xi.4X@X@X/ c.c.i.x._.0.XXrX^.",
"_.N _.1XeX] &.@.pXY.N $Xq U.M.@X2X&.i.U.x.i.>X3X$.W.+ w . |.^.qXX.X.Q tXe.B.bXV.,X2Xi.E.E.=X(.F.e...",
"2Xq.*X1X@X+X&.M.2X..jXcXB : w.@XM.[ p.Q.i.eXi.c.;X>Xr T.# jX*Xx.rX&Xw.,X .,X3 X.^.FXU.R.aXvXn.NXzXN.",
"_.M.+XlXeXM.R.i.1X*X*X=X=Xn R.pXi.Y.kX2XE.E.aXQ.2XpX( ( q AX`...cXx.+X$X] x.1XaXjX_.e.q.CXB.W 9.b.m.",
"c.@XR.eX+X1XCXw.,XU.x.$X[.} ] i.R L VX{.{.aXU.VXc.pX[ ] q.&XcX2.$Xr.o.cX^.8.e.tXB.&.R.c.eXrXR X.^.| ",
"+X/ ] +X,X`.=X&XM.lX@X*XY /.3 [ Y.>X{.[ aX&XI >X).).R l O.AXqX*XqXo.B.B.p.N.q...x.FX>Xp.Y.1X..B.) $X",
"N.#.#.jXFXN.1X=X.X@Xw.^.^.XXs J R.@X[ E.{ ^ *.c.@X_.jX: n.nX&X{.CX`.$X..aX..^.*XcXtX`.8.FXe.X.R ^.V.",
"_. .{._.w.qXn.=X .i.q.N ^.8X2.  K  .M._.@X .eX).^.$X#.z e.+XpXw._._.=XW M.rXn.tXX.V.jXe.X.1X8.X.W e.",
").R R.R.R.&.*XjXF.q.w.jX_.-X0.2 + x.&XrX+X$X .}.B.Y . e R.CXc.Q _.&.L ).} p.N.cXrX*X=X..SXAXB.B.$XX.",
"R.&.[ *X}.x.vXtX(.b.c.;X#.gX9.u X M Q.B W ..q.w K O [ 9 nXx.U.w.zX8.tXtXB.N.cX^.x.w._.B.qX8.n.V.jXN.",
">X}.+X*X^.n.`.8.S b.8.] &XtXl.j o X J }.+XO FX@X4XR. .s.%XvX|.Q.^.`.X.8.qX^.1XtX*XR.}.`.=XSXB.r.n.s ",
"{.*X#.=XcX=Xw.^.oX^.8._.U.$Xm.Q & = 8   % DX@XT.ZXQ. .$XH.XX!.#X8.W `.8.b.N.r.$Xx.N.zX*XtX=Xb.O.qXN.",
"R._.@.#.1XrX&X..,.$XC.) Y.^.8.N = e 8 8 VX2XK &X$.E M.R B 8X1X/ =Xe.s C.XXXXzXo.b.w.+Xn.-Xb.rXC.6 y.",
"w.{.&Xp.1XB._.^.9.$XAXO.w.).`.tXe , HXP.2Xc.rX*Xq.rX|.a.; B } 0.^.e.b.8.2.W qXb.r.e.*X^.^.^.V.Q y.j.",
"o.=Xx. .w._.&.n 0.gXqXx.X.C.-XXXY f T.*.eX&XQ.*.U. .c.c.aX+ 0 J Q A iXXXm.z.qXcXGXqXtX$X=XyX^.N.B.T ",
"N.=Xn.W x.n.wX/.$Xn.w...o.V.yXz.} O 3X{.*XY.^ @Xc.Y.pXxXq._.% g f W } (.-X} X.j._ A i T 2.%X/.8.3 W ",
"e.N.*XR._.V.N.9.x.+XN.*X/.F.%X,.X.: T...`.R.q.+XpXp.CX&.VXpXE.E ^ 1 , B Y 0.-X} h.H.' H.z._ L @ L / ",
"x.X.E q  .8.N.p.B =Xe.+X_.e.`.N r.l c._.x.M.}.+XM.cXaXeX>X}.#.).z i.>XDXq A W R n s h ; - 9 O > l +X",
"x.[ &./  .n.`.e.N tXV.o.&.E x.8.^.% 0 _.w.q.eX1XY.&./  ./ {.rXR.. f E &XK # + ; l  .}.q. .U.@.@XqXN.",
">Xx.}.x.8.x.[ E.X.N e.n.L ..1 R v > >  .X.&Xp.R.cX&XM.2X#.M.,X,X% < , q : i.@XU.*X`.p.w.x.n.W C.+Xx.",
">X .&.w.R.] m [ ^ @.e.- Q B.| 2.*Xm X I N.p.q.c.2X{.&Xp.Y.+Xq._.. *.  l w.n.&.q.$Xe.&Xe.b.B.wXe.e.).",
"w. .#.{.R.w + + o o m W $X%X! S eX!.8 o ).p.a.&XE.&X .I _.p.R.).= P.w.2 e.B.F.z.-Xj.^.^.#.p.x. .N.R.",
"} E W F.b.0 X > $ B.l.3.3.h.| | e.G.m # 8 b.&X2XX.$XB.$Xq.}.p.E  .E.R w XXx.X.XX`.iXN.b.V.*X=Xb.B.qX",
"B.1XR.9.rXe = *.e.W T ` 1.T | i d _ g < = 6 h N.rX=XW r.q.[ eXrXi.g &.. 2.&.e.XXSX'.8.e.w.r.W ^.`.zX"
};
